<svg xmlns="http://www.w3.org/2000/svg" width="129.5mm" height="318.18" version="1.1" viewBox="0 0 129.5 84.185"><metadata/><g transform="translate(28.349 19.205)"><rect width="129.5" height="61.568" x="-28.349" y="-19.205"/><g fill="#fff" fill-opacity=".941" stroke-width=".265" aria-label="{}"><path d="m-1.7147 31.381v3.5719h-1.5379q-6.1764 0-8.2848-1.8355-2.0836-1.8355-2.0836-7.3174v-5.9283q0-3.7455-1.3395-5.1842t-4.8617-1.4387h-1.5131v-3.5471h1.5131q3.5471 0 4.8617-1.4139 1.3395-1.4387 1.3395-5.1346v-5.9531q0-5.4818 2.0836-7.2926 2.1084-1.8355 8.2848-1.8355h1.5379v3.5471h-1.6867q-3.4975 0-4.5641 1.0914-1.0666 1.0914-1.0666 4.5889v6.1516q0 3.8943-1.141 5.6555-1.1162 1.7611-3.8447 2.3812 2.7533 0.66973 3.8695 2.4309 1.1162 1.7611 1.1162 5.6307v6.1516q0 3.4975 1.0666 4.5889 1.0666 1.0914 4.5641 1.0914z"/><path d="m11.01 31.381h1.7363q3.4727 0 4.5145-1.0666 1.0666-1.0666 1.0666-4.6137v-6.1516q0-3.8695 1.1162-5.6307 1.1162-1.7611 3.8695-2.4309-2.7533-0.62012-3.8695-2.3812-1.1162-1.7611-1.1162-5.6555v-6.1516q0-3.5223-1.0666-4.5889-1.0418-1.0914-4.5145-1.0914h-1.7363v-3.5471h1.5627q6.1764 0 8.2352 1.8355 2.0836 1.8107 2.0836 7.2926v5.9531q0 3.6959 1.3395 5.1346 1.3395 1.4139 4.8617 1.4139h1.5379v3.5471h-1.5379q-3.5223 0-4.8617 1.4387-1.3395 1.4387-1.3395 5.1842v5.9283q0 5.4818-2.0836 7.3174-2.0588 1.8355-8.2352 1.8355h-1.5627z"/></g><flowRoot fill="#000" font-family="sans-serif" font-size="40" letter-spacing="0" transform="scale(.26458)" word-spacing="0" xml:space="preserve" style="line-height:1.25"><flowRegion><rect width="185.71" height="444.29" x="214.29" y="-306.05"/></flowRegion><flowPara/></flowRoot><g fill="#fff" fill-opacity=".941"><rect width="28.68" height="4.325" x="42.165" y="-12.188" stroke-width=".211"/><rect width="50.561" height="4.325" x="41.942" y="-3.957" stroke-width=".281"/><rect width="23.068" height="4.325" x="42.003" y="4.997" stroke-width=".19"/><rect width="16.92" height="4.325" x="68.853" y="4.997" stroke-width=".162"/><rect width="46.721" height="4.325" x="41.602" y="13.945" stroke-width=".27"/><rect width="13.179" height="4.325" x="41.73" y="22.631" stroke-width=".143"/><rect width="33.09" height="4.325" x="60.033" y="22.631" stroke-width=".227"/><rect width="21.731" height="4.325" x="41.591" y="31.178" stroke-width=".184"/><rect width="9.437" height="4.325" x="66.498" y="31.178" stroke-width=".121"/><rect width="15.45" height="4.325" x="78.73" y="31.35" stroke-width=".155"/></g><g aria-label="onefetch"><g aria-label="onefetch"><path d="m165.83 277.52q-3.7188 0-5.6875 2.6875-1.9375 2.6562-1.9375 7.6875t1.9375 7.7188q1.9688 2.6562 5.6875 2.6562 3.6562 0 5.5938-2.6562 1.9375-2.6875 1.9375-7.7188t-1.9375-7.6875q-1.9375-2.6875-5.5938-2.6875zm0-8q9.0312 0 14.094 4.875 5.0938 4.875 5.0938 13.5t-5.0938 13.5q-5.0625 4.875-14.094 4.875-9.0625 0-14.188-4.875-5.0938-4.875-5.0938-13.5t5.0938-13.5q5.125-4.875 14.188-4.875z" transform="matrix(.26458 0 0 .26458 -44.136 -18.867)"/><path d="m228.36 284.05v21.312h-11.25v-16.312q0-4.5312-0.21875-6.25-0.1875-1.7188-0.6875-2.5312-0.65625-1.0938-1.7812-1.6875-1.125-0.625-2.5625-0.625-3.5 0-5.5 2.7188-2 2.6875-2 7.4688v17.219h-11.188v-35h11.188v5.125q2.5312-3.0625 5.375-4.5 2.8438-1.4688 6.2812-1.4688 6.0625 0 9.1875 3.7188 3.1562 3.7188 3.1562 10.812z" transform="matrix(.26458 0 0 .26458 -44.136 -18.867)"/><path d="m273.74 287.77v3.1875h-26.156q0.40625 3.9375 2.8438 5.9062t6.8125 1.9688q3.5312 0 7.2188-1.0312 3.7188-1.0625 7.625-3.1875v8.625q-3.9688 1.5-7.9375 2.25-3.9688 0.78125-7.9375 0.78125-9.5 0-14.781-4.8125-5.25-4.8438-5.25-13.562 0-8.5625 5.1562-13.469 5.1875-4.9062 14.25-4.9062 8.25 0 13.188 4.9688 4.9688 4.9688 4.9688 13.281zm-11.5-3.7188q0-3.1875-1.875-5.125-1.8438-1.9688-4.8438-1.9688-3.25 0-5.2812 1.8438-2.0312 1.8125-2.5312 5.25z" transform="matrix(.26458 0 0 .26458 -44.136 -18.867)"/><path d="m305.21 256.74v7.3438h-6.1875q-2.375 0-3.3125 0.875-0.9375 0.84375-0.9375 2.9688v2.4375h9.5625v8h-9.5625v27h-11.188v-27h-5.5625v-8h5.5625v-2.4375q0-5.7188 3.1875-8.4375 3.1875-2.75 9.875-2.75z" transform="matrix(.26458 0 0 .26458 -44.136 -18.867)"/><path d="m344.99 287.77v3.1875h-26.156q0.40625 3.9375 2.8438 5.9062t6.8125 1.9688q3.5312 0 7.2188-1.0312 3.7188-1.0625 7.625-3.1875v8.625q-3.9688 1.5-7.9375 2.25-3.9688 0.78125-7.9375 0.78125-9.5 0-14.781-4.8125-5.25-4.8438-5.25-13.562 0-8.5625 5.1562-13.469 5.1875-4.9062 14.25-4.9062 8.25 0 13.188 4.9688 4.9688 4.9688 4.9688 13.281zm-11.5-3.7188q0-3.1875-1.875-5.125-1.8438-1.9688-4.8438-1.9688-3.25 0-5.2812 1.8438-2.0312 1.8125-2.5312 5.25z" transform="matrix(.26458 0 0 .26458 -44.136 -18.867)"/><path d="m365.64 260.42v9.9375h11.531v8h-11.531v14.844q0 2.4375 0.96875 3.3125 0.96875 0.84375 3.8438 0.84375h5.75v8h-9.5938q-6.625 0-9.4062-2.75-2.75-2.7812-2.75-9.4062v-14.844h-5.5625v-8h5.5625v-9.9375z" transform="matrix(.26458 0 0 .26458 -44.136 -18.867)"/><path d="m412.33 271.46v9.125q-2.2812-1.5625-4.5938-2.3125-2.2812-0.75-4.75-0.75-4.6875 0-7.3125 2.75-2.5938 2.7188-2.5938 7.625t2.5938 7.6562q2.625 2.7188 7.3125 2.7188 2.625 0 4.9688-0.78125 2.375-0.78125 4.375-2.3125v9.1562q-2.625 0.96875-5.3438 1.4375-2.6875 0.5-5.4062 0.5-9.4688 0-14.812-4.8438-5.3438-4.875-5.3438-13.531t5.3438-13.5q5.3438-4.875 14.812-4.875 2.75 0 5.4062 0.5 2.6875 0.46875 5.3438 1.4375z" transform="matrix(.26458 0 0 .26458 -44.136 -18.867)"/><path d="m457.24 284.05v21.312h-11.25v-16.25q0-4.5938-0.21875-6.3125-0.1875-1.7188-0.6875-2.5312-0.65625-1.0938-1.7812-1.6875-1.125-0.625-2.5625-0.625-3.5 0-5.5 2.7188-2 2.6875-2 7.4688v17.219h-11.188v-48.625h11.188v18.75q2.5312-3.0625 5.375-4.5 2.8438-1.4688 6.2812-1.4688 6.0625 0 9.1875 3.7188 3.1562 3.7188 3.1562 10.812z" transform="matrix(.26458 0 0 .26458 -44.136 -18.867)"/></g></g><rect width="129.5" height="84.185" x="-28.349" y="-19.205" fill="none" stroke-width=".264"/></g></svg>