<?xml version="1.0" encoding="UTF-8" standalone="no"?>
<svg
   xmlns:dc="http://purl.org/dc/elements/1.1/"
   xmlns:cc="http://creativecommons.org/ns#"
   xmlns:rdf="http://www.w3.org/1999/02/22-rdf-syntax-ns#"
   xmlns:svg="http://www.w3.org/2000/svg"
   xmlns="http://www.w3.org/2000/svg"
   xmlns:sodipodi="http://sodipodi.sourceforge.net/DTD/sodipodi-0.dtd"
   xmlns:inkscape="http://www.inkscape.org/namespaces/inkscape"
   width="133.69516mm"
   height="84.593719mm"
   viewBox="0 0 133.69515 84.593721"
   version="1.1"
   id="svg8"
   inkscape:version="1.0.1 (0767f8302a, 2020-10-17)"
   sodipodi:docname="onefetch.svg"
   inkscape:export-filename="/home/o2sh/onefetch.png"
   inkscape:export-xdpi="96"
   inkscape:export-ydpi="96">
  <defs
     id="defs2" />
  <sodipodi:namedview
     id="base"
     pagecolor="#ffffff"
     bordercolor="#666666"
     borderopacity="1.0"
     inkscape:pageopacity="0.0"
     inkscape:pageshadow="2"
     inkscape:zoom="1.6861883"
     inkscape:cx="189.77509"
     inkscape:cy="194.95397"
     inkscape:document-units="mm"
     inkscape:current-layer="layer1"
     showgrid="false"
     inkscape:window-width="1920"
     inkscape:window-height="1016"
     inkscape:window-x="0"
     inkscape:window-y="27"
     inkscape:window-maximized="1"
     fit-margin-top="0"
     fit-margin-left="0"
     fit-margin-right="0"
     fit-margin-bottom="0"
     showborder="false"
     inkscape:document-rotation="0" />
  <metadata
     id="metadata5">
    <rdf:RDF>
      <cc:Work
         rdf:about="">
        <dc:format>image/svg+xml</dc:format>
        <dc:type
           rdf:resource="http://purl.org/dc/dcmitype/StillImage" />
        <dc:title></dc:title>
      </cc:Work>
    </rdf:RDF>
  </metadata>
  <g
     inkscape:label="Layer 1"
     inkscape:groupmode="layer"
     id="layer1"
     transform="translate(30.129501,21.147913)">
    <rect
       id="rect3713"
       width="133.69516"
       height="66.182007"
       x="-30.129501"
       y="-21.147913"
       style="fill:#21262d;fill-opacity:1;stroke:none;stroke-width:1.11489;stroke-linejoin:round;stroke-miterlimit:4;stroke-dasharray:none;stroke-opacity:1"
       inkscape:export-filename="/home/o2sh/dev/onefetch/assets/onefetch.png"
       inkscape:export-xdpi="96"
       inkscape:export-ydpi="96" />
    <g
       aria-label="{}"
       id="text4530"
       style="font-style:normal;font-weight:normal;font-size:10.5833px;line-height:1.25;font-family:sans-serif;letter-spacing:0px;word-spacing:0px;fill:#000000;fill-opacity:1;stroke:none;stroke-width:0.264583">
      <path
         d="m -1.7147324,31.381088 v 3.571875 H -3.252623 q -6.1763671,0 -8.284765,-1.835547 -2.083594,-1.835547 -2.083594,-7.317382 v -5.928321 q 0,-3.745507 -1.339453,-5.184179 -1.339453,-1.438672 -4.861719,-1.438672 H -21.33524 V 9.7017916 h 1.513086 q 3.54707,0 4.861719,-1.4138671 1.339453,-1.4386719 1.339453,-5.1345703 v -5.9531249 q 0,-5.4818358 2.083594,-7.2925783 2.1083979,-1.835547 8.284765,-1.835547 h 1.5378906 v 3.5470707 h -1.6867187 q -3.4974609,0 -4.5640624,1.0914063 -1.0666016,1.0914062 -1.0666016,4.5888671 v 6.1515624 q 0,3.8943359 -1.1410159,5.6554686 -1.116211,1.7611329 -3.844726,2.3812499 2.75332,0.669727 3.869531,2.430859 1.1162109,1.761133 1.1162109,5.630664 v 6.151563 q 0,3.497461 1.0666016,4.588867 1.0666015,1.091406 4.5640624,1.091406 z"
         style="font-style:normal;font-variant:normal;font-weight:normal;font-stretch:normal;font-size:50.8px;font-family:sans-serif;-inkscape-font-specification:sans-serif;fill:#ffffff;fill-opacity:0.941176;stroke-width:0.264583"
         id="path1547" />
      <path
         d="m 11.01007,31.381088 h 1.736328 q 3.472657,0 4.514453,-1.066601 1.066602,-1.066602 1.066602,-4.613672 v -6.151563 q 0,-3.869531 1.116211,-5.630664 1.116211,-1.761132 3.869531,-2.430859 -2.75332,-0.620117 -3.869531,-2.3812499 -1.116211,-1.7611327 -1.116211,-5.6554686 v -6.1515624 q 0,-3.5222656 -1.066602,-4.5888671 -1.041796,-1.0914063 -4.514453,-1.0914063 H 11.01007 v -3.5470707 h 1.562696 q 6.176367,0 8.235156,1.835547 2.083593,1.8107425 2.083593,7.2925783 v 5.9531249 q 0,3.6958984 1.339454,5.1345703 1.339453,1.4138671 4.861718,1.4138671 h 1.537891 v 3.5470704 h -1.537891 q -3.522265,0 -4.861718,1.438672 -1.339454,1.438672 -1.339454,5.184179 v 5.928321 q 0,5.481835 -2.083593,7.317382 -2.058789,1.835547 -8.235156,1.835547 H 11.01007 Z"
         style="font-style:normal;font-variant:normal;font-weight:normal;font-stretch:normal;font-size:50.8px;font-family:sans-serif;-inkscape-font-specification:sans-serif;fill:#ffffff;fill-opacity:0.941176;stroke-width:0.264583"
         id="path1549" />
    </g>
    <flowRoot
       xml:space="preserve"
       id="flowRoot4532"
       style="font-style:normal;font-weight:normal;font-size:40px;line-height:1.25;font-family:sans-serif;letter-spacing:0px;word-spacing:0px;fill:#000000;fill-opacity:1;stroke:none"
       transform="scale(0.26458333)"><flowRegion
         id="flowRegion4534"><rect
           id="rect4536"
           width="185.71428"
           height="444.28571"
           x="214.28572"
           y="-306.05176" /></flowRegion><flowPara
         id="flowPara4538" /></flowRoot>
    <rect
       style="fill:#ffffff;fill-opacity:0.941176;stroke-width:0.211415"
       id="rect4540"
       width="28.680334"
       height="4.3254261"
       x="42.164768"
       y="-12.187752"
       inkscape:export-filename="/home/o2sh/dev/onefetch/assets/onefetch.png"
       inkscape:export-xdpi="96"
       inkscape:export-ydpi="96" />
    <rect
       style="fill:#ffffff;fill-opacity:0.941176;stroke-width:0.280705"
       id="rect4540-2"
       width="50.560997"
       height="4.3254266"
       x="41.941555"
       y="-3.9568648"
       inkscape:export-filename="/home/o2sh/dev/onefetch/assets/onefetch.png"
       inkscape:export-xdpi="96"
       inkscape:export-ydpi="96" />
    <rect
       style="fill:#ffffff;fill-opacity:0.941176;stroke-width:0.189603"
       id="rect4540-2-7"
       width="23.067677"
       height="4.3254266"
       x="42.002987"
       y="4.9966645"
       inkscape:export-filename="/home/o2sh/dev/onefetch/assets/onefetch.png"
       inkscape:export-xdpi="96"
       inkscape:export-ydpi="96" />
    <rect
       style="fill:#ffffff;fill-opacity:0.941176;stroke-width:0.162386"
       id="rect4540-2-9"
       width="16.920479"
       height="4.3254266"
       x="68.852844"
       y="4.9966645"
       inkscape:export-filename="/home/o2sh/dev/onefetch/assets/onefetch.png"
       inkscape:export-xdpi="96"
       inkscape:export-ydpi="96" />
    <rect
       style="fill:#ffffff;fill-opacity:0.941176;stroke-width:0.269836"
       id="rect4540-2-95"
       width="46.721031"
       height="4.3254266"
       x="41.602085"
       y="13.944821"
       inkscape:export-filename="/home/o2sh/dev/onefetch/assets/onefetch.png"
       inkscape:export-xdpi="96"
       inkscape:export-ydpi="96" />
    <rect
       style="fill:#ffffff;fill-opacity:0.941176;stroke-width:0.143311"
       id="rect4540-2-2"
       width="13.178705"
       height="4.3254266"
       x="41.73035"
       y="22.631081"
       inkscape:export-filename="/home/o2sh/dev/onefetch/assets/onefetch.png"
       inkscape:export-xdpi="96"
       inkscape:export-ydpi="96" />
    <rect
       style="fill:#ffffff;fill-opacity:0.941176;stroke-width:0.227088"
       id="rect4540-2-0"
       width="33.090286"
       height="4.3254266"
       x="60.032948"
       y="22.631081"
       inkscape:export-filename="/home/o2sh/dev/onefetch/assets/onefetch.png"
       inkscape:export-xdpi="96"
       inkscape:export-ydpi="96" />
    <rect
       style="fill:#ffffff;fill-opacity:0.941176;stroke-width:0.184029"
       id="rect4540-2-8"
       width="21.731329"
       height="4.3254266"
       x="41.591343"
       y="31.178333"
       inkscape:export-filename="/home/o2sh/dev/onefetch/assets/onefetch.png"
       inkscape:export-xdpi="96"
       inkscape:export-ydpi="96" />
    <rect
       style="fill:#ffffff;fill-opacity:0.941176;stroke-width:0.121271"
       id="rect4540-2-3"
       width="9.4369316"
       height="4.3254266"
       x="66.497658"
       y="31.178333"
       inkscape:export-filename="/home/o2sh/dev/onefetch/assets/onefetch.png"
       inkscape:export-xdpi="96"
       inkscape:export-ydpi="96" />
    <rect
       style="fill:#ffffff;fill-opacity:0.941176;stroke-width:0.155172"
       id="rect4540-2-3-5"
       width="15.450496"
       height="4.3254266"
       x="78.729637"
       y="31.349571"
       inkscape:export-filename="/home/o2sh/dev/onefetch/assets/onefetch.png"
       inkscape:export-xdpi="96"
       inkscape:export-ydpi="96" />
    <g
       aria-label="onefetch"
       transform="matrix(0.26458333,0,0,0.26458333,-43.607248,-18.337761)"
       id="flowRoot4673"
       style="font-style:normal;font-weight:normal;font-size:53.3333px;line-height:1.25;font-family:sans-serif;letter-spacing:0px;word-spacing:0px;fill:#21262d;fill-opacity:1;stroke:none;stroke-linejoin:round;stroke-opacity:1"
       inkscape:export-filename="/home/o2sh/dev/onefetch/assets/onefetch.png"
       inkscape:export-xdpi="96"
       inkscape:export-ydpi="96">
      <g
         aria-label="onefetch"
         id="text1362"
         style="font-style:normal;font-weight:normal;font-size:64px;line-height:1.25;font-family:sans-serif;fill:#21262d;fill-opacity:1;stroke:none;stroke-linejoin:round;stroke-opacity:1">
        <path
           d="m 165.8304,277.51764 q -3.71875,0 -5.6875,2.6875 -1.9375,2.65625 -1.9375,7.6875 0,5.03125 1.9375,7.71875 1.96875,2.65625 5.6875,2.65625 3.65625,0 5.59375,-2.65625 1.9375,-2.6875 1.9375,-7.71875 0,-5.03125 -1.9375,-7.6875 -1.9375,-2.6875 -5.59375,-2.6875 z m 0,-8 q 9.03125,0 14.09375,4.875 5.09375,4.875 5.09375,13.5 0,8.625 -5.09375,13.5 -5.0625,4.875 -14.09375,4.875 -9.0625,0 -14.1875,-4.875 -5.09375,-4.875 -5.09375,-13.5 0,-8.625 5.09375,-13.5 5.125,-4.875 14.1875,-4.875 z"
           style="font-style:normal;font-variant:normal;font-weight:bold;font-stretch:normal;font-size:64px;font-family:sans-serif;-inkscape-font-specification:'sans-serif Bold';fill:#21262d;fill-opacity:1;stroke:none;stroke-linejoin:round;stroke-opacity:1"
           id="path1520" />
        <path
           d="m 228.36165,284.04889 v 21.3125 h -11.25 v -3.46875 -12.84375 q 0,-4.53125 -0.21875,-6.25 -0.1875,-1.71875 -0.6875,-2.53125 -0.65625,-1.09375 -1.78125,-1.6875 -1.125,-0.625 -2.5625,-0.625 -3.5,0 -5.5,2.71875 -2,2.6875 -2,7.46875 v 17.21875 h -11.1875 v -35 h 11.1875 v 5.125 q 2.53125,-3.0625 5.375,-4.5 2.84375,-1.46875 6.28125,-1.46875 6.0625,0 9.1875,3.71875 3.15625,3.71875 3.15625,10.8125 z"
           style="font-style:normal;font-variant:normal;font-weight:bold;font-stretch:normal;font-size:64px;font-family:sans-serif;-inkscape-font-specification:'sans-serif Bold';fill:#21262d;fill-opacity:1;stroke:none;stroke-linejoin:round;stroke-opacity:1"
           id="path1522" />
        <path
           d="m 273.73665,287.76764 v 3.1875 H 247.5804 q 0.40625,3.9375 2.84375,5.90625 2.4375,1.96875 6.8125,1.96875 3.53125,0 7.21875,-1.03125 3.71875,-1.0625 7.625,-3.1875 v 8.625 q -3.96875,1.5 -7.9375,2.25 -3.96875,0.78125 -7.9375,0.78125 -9.5,0 -14.78125,-4.8125 -5.25,-4.84375 -5.25,-13.5625 0,-8.5625 5.15625,-13.46875 5.1875,-4.90625 14.25,-4.90625 8.25,0 13.1875,4.96875 4.96875,4.96875 4.96875,13.28125 z m -11.5,-3.71875 q 0,-3.1875 -1.875,-5.125 -1.84375,-1.96875 -4.84375,-1.96875 -3.25,0 -5.28125,1.84375 -2.03125,1.8125 -2.53125,5.25 z"
           style="font-style:normal;font-variant:normal;font-weight:bold;font-stretch:normal;font-size:64px;font-family:sans-serif;-inkscape-font-specification:'sans-serif Bold';fill:#21262d;fill-opacity:1;stroke:none;stroke-linejoin:round;stroke-opacity:1"
           id="path1524" />
        <path
           d="m 305.2054,256.73639 v 7.34375 h -6.1875 q -2.375,0 -3.3125,0.875 -0.9375,0.84375 -0.9375,2.96875 v 2.4375 h 9.5625 v 8 h -9.5625 v 27 h -11.1875 v -27 h -5.5625 v -8 h 5.5625 v -2.4375 q 0,-5.71875 3.1875,-8.4375 3.1875,-2.75 9.875,-2.75 z"
           style="font-style:normal;font-variant:normal;font-weight:bold;font-stretch:normal;font-size:64px;font-family:sans-serif;-inkscape-font-specification:'sans-serif Bold';fill:#21262d;fill-opacity:1;stroke:none;stroke-linejoin:round;stroke-opacity:1"
           id="path1526" />
        <path
           d="m 344.98665,287.76764 v 3.1875 H 318.8304 q 0.40625,3.9375 2.84375,5.90625 2.4375,1.96875 6.8125,1.96875 3.53125,0 7.21875,-1.03125 3.71875,-1.0625 7.625,-3.1875 v 8.625 q -3.96875,1.5 -7.9375,2.25 -3.96875,0.78125 -7.9375,0.78125 -9.5,0 -14.78125,-4.8125 -5.25,-4.84375 -5.25,-13.5625 0,-8.5625 5.15625,-13.46875 5.1875,-4.90625 14.25,-4.90625 8.25,0 13.1875,4.96875 4.96875,4.96875 4.96875,13.28125 z m -11.5,-3.71875 q 0,-3.1875 -1.875,-5.125 -1.84375,-1.96875 -4.84375,-1.96875 -3.25,0 -5.28125,1.84375 -2.03125,1.8125 -2.53125,5.25 z"
           style="font-style:normal;font-variant:normal;font-weight:bold;font-stretch:normal;font-size:64px;font-family:sans-serif;-inkscape-font-specification:'sans-serif Bold';fill:#21262d;fill-opacity:1;stroke:none;stroke-linejoin:round;stroke-opacity:1"
           id="path1528" />
        <path
           d="m 365.6429,260.42389 v 9.9375 h 11.53125 v 8 H 365.6429 v 14.84375 q 0,2.4375 0.96875,3.3125 0.96875,0.84375 3.84375,0.84375 h 5.75 v 8 h -9.59375 q -6.625,0 -9.40625,-2.75 -2.75,-2.78125 -2.75,-9.40625 v -14.84375 h -5.5625 v -8 h 5.5625 v -9.9375 z"
           style="font-style:normal;font-variant:normal;font-weight:bold;font-stretch:normal;font-size:64px;font-family:sans-serif;-inkscape-font-specification:'sans-serif Bold';fill:#21262d;fill-opacity:1;stroke:none;stroke-linejoin:round;stroke-opacity:1"
           id="path1530" />
        <path
           d="m 412.3304,271.45514 v 9.125 q -2.28125,-1.5625 -4.59375,-2.3125 -2.28125,-0.75 -4.75,-0.75 -4.6875,0 -7.3125,2.75 -2.59375,2.71875 -2.59375,7.625 0,4.90625 2.59375,7.65625 2.625,2.71875 7.3125,2.71875 2.625,0 4.96875,-0.78125 2.375,-0.78125 4.375,-2.3125 v 9.15625 q -2.625,0.96875 -5.34375,1.4375 -2.6875,0.5 -5.40625,0.5 -9.46875,0 -14.8125,-4.84375 -5.34375,-4.875 -5.34375,-13.53125 0,-8.65625 5.34375,-13.5 5.34375,-4.875 14.8125,-4.875 2.75,0 5.40625,0.5 2.6875,0.46875 5.34375,1.4375 z"
           style="font-style:normal;font-variant:normal;font-weight:bold;font-stretch:normal;font-size:64px;font-family:sans-serif;-inkscape-font-specification:'sans-serif Bold';fill:#21262d;fill-opacity:1;stroke:none;stroke-linejoin:round;stroke-opacity:1"
           id="path1532" />
        <path
           d="m 457.23665,284.04889 v 21.3125 h -11.25 v -3.46875 -12.78125 q 0,-4.59375 -0.21875,-6.3125 -0.1875,-1.71875 -0.6875,-2.53125 -0.65625,-1.09375 -1.78125,-1.6875 -1.125,-0.625 -2.5625,-0.625 -3.5,0 -5.5,2.71875 -2,2.6875 -2,7.46875 v 17.21875 h -11.1875 v -48.625 h 11.1875 v 18.75 q 2.53125,-3.0625 5.375,-4.5 2.84375,-1.46875 6.28125,-1.46875 6.0625,0 9.1875,3.71875 3.15625,3.71875 3.15625,10.8125 z"
           style="font-style:normal;font-variant:normal;font-weight:bold;font-stretch:normal;font-size:64px;font-family:sans-serif;-inkscape-font-specification:'sans-serif Bold';fill:#21262d;fill-opacity:1;stroke:none;stroke-linejoin:round;stroke-opacity:1"
           id="path1534" />
      </g>
    </g>
    <rect
       style="fill:none;fill-rule:evenodd;stroke-width:0.268304"
       id="rect870"
       width="133.4785"
       height="84.504364"
       x="-30.006668"
       y="-21.058556"
       inkscape:export-filename="/home/o2sh/dev/onefetch/assets/onefetch.png"
       inkscape:export-xdpi="96"
       inkscape:export-ydpi="96" />
  </g>
</svg>
